Coordinates
version=1
nRows=6
nColumns=38
inDegrees=yes

Units are S.I. units (second, meters, Newtons, ...)
Angles are in degrees.

endheader
time	pelvis_tilt	pelvis_list	pelvis_rotation	pelvis_tx	pelvis_ty	pelvis_tz	hip_flexion_r	hip_adduction_r	hip_rotation_r	knee_angle_r	ankle_angle_r	subtalar_angle_r	mtp_angle_r	hip_flexion_l	hip_adduction_l	hip_rotation_l	knee_angle_l	ankle_angle_l	subtalar_angle_l	mtp_angle_l	lumbar_extension	lumbar_bending	lumbar_rotation	arm_flex_r	arm_add_r	arm_rot_r	elbow_flex_r	pro_sup_r	wrist_flex_r	wrist_dev_r	arm_flex_l	arm_add_l	arm_rot_l	elbow_flex_l	pro_sup_l	wrist_flex_l	wrist_dev_l
      0.00000000	      0.21349898	     -6.26147319	     86.89341218	     -0.22751417	      1.12583095	     -0.43441386	    -10.20259290	      1.91942232	      5.27568195	    -21.20801513	    -14.28492578	      0.00000000	      0.00000000	     30.69003283	     -1.85652297	     -3.38078848	    -23.68457490	     -1.36931179	      0.00000000	      0.00000000	    -11.54387175	     -5.13919099	     20.88407890	      0.00000000	      0.00000000	      0.00000000	     90.00000000	     90.00000000	      0.00000000	      0.00000000	      0.00000000	      0.00000000	      0.00000000	     90.00000000	     90.00000000	      0.00000000	      0.00000000
      0.00500000	      0.78711518	     -6.98493268	     87.13921236	     -0.22751103	      1.12452261	     -0.43410739	     -9.25810561	      2.61080223	      5.69090617	    -22.94669632	    -14.24847817	      0.00000000	      0.00000000	     30.98137931	     -2.18977816	     -2.30758171	    -21.17074029	     -1.88941839	      0.00000000	      0.00000000	    -10.65397846	     -4.45731096	     20.36204880	      0.00000000	      0.00000000	      0.00000000	     90.00000000	     90.00000000	      0.00000000	      0.00000000	      0.00000000	      0.00000000	      0.00000000	     90.00000000	     90.00000000	      0.00000000	      0.00000000
      0.01000000	      1.28605233	     -7.44851542	     87.27861357	     -0.22740108	      1.12365778	     -0.43386378	     -8.51433558	      3.27637553	      6.26746653	    -24.85408751	    -14.12582304	      0.00000000	      0.00000000	     31.03503981	     -2.53365875	     -1.45329531	    -18.96088121	     -2.28060803	      0.00000000	      0.00000000	    -10.09620791	     -3.90152436	     19.98623430	      0.00000000	      0.00000000	      0.00000000	     90.00000000	     90.00000000	      0.00000000	      0.00000000	      0.00000000	      0.00000000	      0.00000000	     90.00000000	     90.00000000	      0.00000000	      0.00000000
      0.01500000	      1.71299214	     -7.67597121	     87.32254505	     -0.22718690	      1.12317329	     -0.43367714	     -7.94445213	      3.91470980	      6.97071180	    -26.92946585	    -13.91729088	      0.00000000	      0.00000000	     30.87594420	     -2.87954392	     -0.80264180	    -17.05172894	     -2.56014436	      0.00000000	      0.00000000	     -9.83954809	     -3.46804298	     19.73969826	      0.00000000	      0.00000000	      0.00000000	     90.00000000	     90.00000000	      0.00000000	      0.00000000	      0.00000000	      0.00000000	      0.00000000	     90.00000000	     90.00000000	      0.00000000	      0.00000000
      0.02000000	      2.07198830	     -7.69882550	     87.28498956	     -0.22686831	      1.12297178	     -0.43353445	     -7.51319539	      4.52263220	      7.75551207	    -29.17033651	    -13.62665172	      0.00000000	      0.00000000	     30.53711240	     -3.21555671	     -0.33482265	    -15.43772096	     -2.75069362	      0.00000000	      0.00000000	     -9.84284174	     -3.15163698	     19.60013654	      0.00000000	      0.00000000	      0.00000000	     90.00000000	     90.00000000	      0.00000000	      0.00000000	      0.00000000	      0.00000000	      0.00000000	     90.00000000	     90.00000000	      0.00000000	      0.00000000
      0.02500000	      2.36807105	     -7.55341996	     87.18133195	     -0.22644333	      1.12292943	     -0.43341466	     -7.18058200	      5.09475823	      8.57159644	    -31.57149532	    -13.26258735	      0.00000000	      0.00000000	     30.05639109	     -3.52775777	     -0.02507939	    -14.11070698	     -2.87772716	      0.00000000	      0.00000000	    -10.05878125	     -2.94589504	     19.54215406	      0.00000000	      0.00000000	      0.00000000	     90.00000000	     90.00000000	      0.00000000	      0.00000000	      0.00000000	      0.00000000	      0.00000000	     90.00000000	     90.00000000	      0.00000000	      0.00000000
